<svg width="339" height="64" viewBox="0 0 339 64" fill="none" xmlns="http://www.w3.org/2000/svg">
<path d="M43.104 0V64L54.496 50.976V8.896L43.104 0ZM34.848 50.688L25.984 56.256V7.744L34.848 11.52V50.688ZM10.752 48.544L18.4 45.888V13.824L10.784 12.192L10.752 48.544Z" fill="white"/>
<path d="M3.808 5.99998V57H8.96V59H0V4H9V5.99998H3.808ZM55.04 6V4H64V59H55.04V56.992H60.192V6H55.04Z" fill="white"/>
<path d="M122.84 12.4478C126.847 12.4478 129.982 13.63 132.244 15.9944C134.507 18.3125 135.638 21.6041 135.638 25.8693V49.1655H124.608V27.7469C124.608 23.7135 122.793 21.6968 119.163 21.6968C117.23 21.6968 115.698 22.3458 114.567 23.6439C113.436 24.942 112.87 26.8428 112.87 29.3463V49.1655H101.839V27.7469C101.839 23.7135 100.024 21.6968 96.3945 21.6968C94.4618 21.6968 92.9062 22.3458 91.7277 23.6439C90.5964 24.942 90.0307 26.8428 90.0307 29.3463V49.1655H79V13.2823H89.7478V18.3588C92.4348 14.4182 95.8996 12.4478 100.142 12.4478C105.61 12.4478 109.382 14.6036 111.456 18.9152C114.425 14.6036 118.22 12.4478 122.84 12.4478Z" fill="white"/>
<path d="M152.794 9.17941H142.259V0H152.794V9.17941ZM153.006 49.1655H141.976V13.2823H153.006V49.1655Z" fill="white"/>
<path d="M194.104 13.2823L181.517 30.6676L194.811 49.1655H182.295L181.376 47.8442C180.622 46.7779 178.595 43.7645 175.295 38.8039C173.456 41.4928 171.406 44.5063 169.143 47.8442L168.224 49.1655H155.92L169.355 30.8067L156.627 13.2823H169.214L170.557 15.1599C173.197 19.0542 174.871 21.5577 175.578 22.6704C177.322 19.8887 178.972 17.3853 180.527 15.1599L181.871 13.2823H194.104Z" fill="white"/>
<path d="M212.123 50C206.419 50 201.87 48.2846 198.476 44.854C195.082 41.4233 193.385 36.8799 193.385 31.2239C193.385 25.4752 195.082 20.9087 198.476 17.5243C201.87 14.14 206.419 12.4478 212.123 12.4478C217.12 12.4478 221.197 13.7459 224.356 16.3421C227.561 18.892 229.423 22.369 229.942 26.7733H218.982C218.369 23.1108 216.083 21.2796 212.123 21.2796C207.079 21.2796 204.557 24.5943 204.557 31.2239C204.557 37.8071 207.079 41.0987 212.123 41.0987C216.365 41.0987 218.722 39.0821 219.194 35.0487H230.154C229.824 39.592 228.009 43.2313 224.709 45.9666C221.409 48.6555 217.214 50 212.123 50Z" fill="white"/>
<path d="M266.182 44.854C262.694 48.2846 258.05 50 252.252 50C246.454 50 241.811 48.2846 238.322 44.854C234.834 41.4233 233.09 36.8799 233.09 31.2239C233.09 25.5216 234.834 20.955 238.322 17.5243C241.764 14.14 246.407 12.4478 252.252 12.4478C258.097 12.4478 262.741 14.14 266.182 17.5243C269.623 20.9087 271.344 25.4752 271.344 31.2239C271.344 36.9263 269.623 41.4696 266.182 44.854ZM252.252 41.3074C254.798 41.3074 256.754 40.4497 258.121 38.7344C259.488 37.019 260.172 34.5155 260.172 31.2239C260.172 27.9323 259.488 25.4288 258.121 23.7135C256.754 21.9981 254.798 21.1405 252.252 21.1405C249.659 21.1405 247.68 21.9981 246.313 23.7135C244.946 25.4288 244.262 27.9323 244.262 31.2239C244.262 34.5155 244.946 37.019 246.313 38.7344C247.68 40.4497 249.659 41.3074 252.252 41.3074Z" fill="white"/>
<path d="M297.355 12.726C297.544 12.726 298.345 12.7724 299.76 12.8651V22.7399H296.931C290.473 22.7399 287.244 25.9852 287.244 32.4757V49.1655H276.213V13.2823H286.961V19.9583C288.658 15.1368 292.123 12.726 297.355 12.726Z" fill="white"/>
<path d="M339 32.267V34.4228H311.989C312.366 36.8799 313.285 38.7575 314.747 40.0556C316.208 41.3537 318.07 42.0028 320.333 42.0028C323.915 42.0028 326.367 40.6583 327.687 37.9694H338.152C337.162 41.6783 335.064 44.6222 331.858 46.8011C328.653 48.9337 324.811 50 320.333 50C314.676 50 310.103 48.2846 306.615 44.854C303.127 41.4233 301.383 36.8799 301.383 31.2239C301.383 25.5216 303.103 20.9782 306.544 17.5939C309.938 14.1632 314.487 12.4478 320.191 12.4478C325.848 12.4478 330.421 14.2327 333.909 17.8025C337.303 21.4186 339 26.2401 339 32.267ZM320.05 20.4451C315.525 20.4451 312.861 22.8095 312.06 27.5382H328.182C327.804 25.3129 326.909 23.5744 325.495 22.3227C324.08 21.0709 322.266 20.4451 320.05 20.4451Z" fill="white"/>
</svg>
