<svg width="295" height="92" viewBox="0 0 295 92" fill="none" xmlns="http://www.w3.org/2000/svg">
<g clip-path="url(#clip0)">
<path d="M43.104 21.3416V85.7391L54.496 72.6342V30.2929L43.104 21.3416ZM34.848 72.3444L25.984 77.947V29.1337L34.848 32.9332V72.3444ZM10.752 70.1871L18.4 67.5146V35.2515L10.784 33.6093L10.752 70.1871Z" fill="white"/>
<path d="M3.808 27.3789V78.6956H39V80.7081H0V25.3665H3.808V27.3789ZM55 27.3789L52.5 25.3665H64V80.7081H60.192V78.6876V27.3789H55Z" fill="white"/>
</g>
<path d="M115.43 36.1056C118.96 36.1056 121.722 37.1647 123.715 39.2829C125.709 41.3596 126.706 44.3084 126.706 48.1295V69H116.987V49.8116C116.987 46.1982 115.388 44.3915 112.19 44.3915C110.487 44.3915 109.137 44.973 108.14 46.1359C107.144 47.2988 106.645 49.0017 106.645 51.2445V69H96.9264V49.8116C96.9264 46.1982 95.3274 44.3915 92.1293 44.3915C90.4264 44.3915 89.0558 44.973 88.0175 46.1359C87.0207 47.2988 86.5223 49.0017 86.5223 51.2445V69H76.8035V36.8532H86.2731V41.4011C88.6405 37.8708 91.6932 36.1056 95.4312 36.1056C100.249 36.1056 103.572 38.0369 105.399 41.8995C108.016 38.0369 111.359 36.1056 115.43 36.1056ZM141.821 33.1775H132.539V24.9539H141.821V33.1775ZM142.008 69H132.289V36.8532H142.008V69ZM178.218 36.8532L167.128 52.4282L178.841 69H167.814L167.004 67.8163C166.339 66.861 164.553 64.1614 161.646 59.7173C160.026 62.1262 158.219 64.8259 156.226 67.8163L155.416 69H144.576L156.413 52.5528L145.199 36.8532H156.288L157.472 38.5353C159.798 42.0241 161.272 44.2669 161.895 45.2637C163.432 42.7717 164.885 40.5289 166.256 38.5353L167.44 36.8532H178.218ZM195.397 69.7476C191.078 69.7476 187.651 68.2316 185.118 65.1997C182.584 62.1678 181.318 58.0767 181.318 52.9266C181.318 47.7765 182.605 43.6647 185.18 40.5912C187.755 37.6008 191.161 36.1056 195.397 36.1056C198.845 36.1056 201.71 37.1232 203.995 39.1583C206.321 41.1519 207.733 43.7685 208.231 47.0081H206.487C205.988 44.2254 204.722 41.9826 202.686 40.2797C200.693 38.5353 198.263 37.6631 195.397 37.6631C191.618 37.6631 188.607 39.0337 186.364 41.7749C184.163 44.4746 183.062 48.1918 183.062 52.9266C183.062 57.6614 184.163 61.3994 186.364 64.1406C188.607 66.8403 191.618 68.1901 195.397 68.1901C198.388 68.1901 200.901 67.2348 202.936 65.3243C205.012 63.3722 206.258 60.9425 206.674 58.0352H208.418C207.961 61.3994 206.549 64.1821 204.182 66.3834C201.773 68.6262 198.845 69.7476 195.397 69.7476ZM237.26 65.0751C234.643 68.1901 231.175 69.7476 226.856 69.7476C222.536 69.7476 219.089 68.1901 216.514 65.0751C213.898 61.9601 212.589 57.9106 212.589 52.9266C212.589 47.9426 213.898 43.8931 216.514 40.7781C219.089 37.6631 222.536 36.1056 226.856 36.1056C231.175 36.1056 234.643 37.6631 237.26 40.7781C239.835 43.9346 241.123 47.9841 241.123 52.9266C241.123 57.8691 239.835 61.9186 237.26 65.0751ZM217.76 63.9537C220.086 66.778 223.118 68.1901 226.856 68.1901C230.594 68.1901 233.626 66.778 235.952 63.9537C238.236 61.171 239.378 57.4953 239.378 52.9266C239.378 48.3579 238.236 44.6822 235.952 41.8995C233.626 39.0752 230.594 37.6631 226.856 37.6631C223.118 37.6631 220.086 39.0752 217.76 41.8995C215.476 44.6822 214.334 48.3579 214.334 52.9266C214.334 57.4953 215.476 61.171 217.76 63.9537ZM261.005 36.4794C261.96 36.4794 262.624 36.5002 262.998 36.5417V38.1615H261.067C257.246 38.1615 254.276 39.366 252.158 41.7749C250.081 44.1423 249.043 47.3404 249.043 51.3691V69H247.299V36.8532H248.981V45.0768C249.811 42.5017 251.244 40.4251 253.279 38.8468C255.356 37.2685 257.931 36.4794 261.005 36.4794ZM291.666 52.802V53.3627H265.5C265.583 57.9729 266.704 61.6071 268.864 64.2652C271.024 66.8818 274.056 68.1901 277.96 68.1901C280.95 68.1901 283.463 67.2971 285.498 65.5112C287.533 63.6837 288.842 61.2125 289.423 58.0975H291.105C290.565 61.6278 289.112 64.4521 286.744 66.5703C284.377 68.6885 281.449 69.7476 277.96 69.7476C273.474 69.7476 269.986 68.2109 267.494 65.1374C265.002 62.0639 263.756 57.9937 263.756 52.9266C263.756 47.9426 264.981 43.8723 267.431 40.7158C269.882 37.6423 273.308 36.1056 277.711 36.1056C282.155 36.1056 285.602 37.6631 288.053 40.7781C290.462 43.8516 291.666 47.8595 291.666 52.802ZM277.711 37.6631C274.056 37.6631 271.149 38.9299 268.989 41.4634C266.871 43.9554 265.708 47.4027 265.5 51.8052H289.859C289.693 47.4857 288.551 44.0592 286.433 41.5257C284.315 38.9506 281.407 37.6631 277.711 37.6631Z" fill="white"/>
<defs>
<clipPath id="clip0">
<path d="M0 21.3416H64V85.7391H0V21.3416Z" fill="white"/>
</clipPath>
</defs>
</svg>
