<svg width="3870" height="936" viewBox="0 0 3870 936" fill="none" xmlns="http://www.w3.org/2000/svg">
<path d="M312.033 744C212.689 744 136.014 722 82.0086 678C28.0029 634 0.666737 572.667 0 494H164.017C164.684 538 177.352 568.667 202.021 586C227.357 603.333 266.028 612 318.033 612C398.709 612 439.046 584.667 439.046 530C439.046 506 430.045 488.333 412.043 477C394.708 465 361.038 454.333 311.033 445L253.027 434C94.3433 407.333 15.0016 333 15.0016 211C15.0016 146.333 39.0041 95 87.0091 57C135.681 19 204.355 0 293.031 0C387.707 0 460.048 20 510.054 60C560.059 100 586.728 157.333 590.062 232H430.045C428.045 197.333 416.377 172 395.042 156C374.373 140 341.369 132 296.031 132C223.357 132 187.02 156 187.02 204C187.02 228 195.687 246.333 213.022 259C231.024 271.667 262.694 282.333 308.032 291L368.039 302C454.048 317.333 516.388 342.333 555.058 377C594.396 411 614.064 458.333 614.064 519C614.064 591.667 587.395 647.333 534.056 686C480.717 724.667 406.709 744 312.033 744Z" fill="white"/>
<path d="M829.478 153H680.462V21H829.478V153ZM832.478 728H676.462V212H832.478V728Z" fill="white"/>
<path d="M1149.58 200C1208.25 200 1253.59 217 1285.6 251C1317.6 285 1333.6 334 1333.6 398V728H1306.6V401C1306.6 343.667 1292.6 300 1264.59 270C1237.26 240 1197.59 225 1145.58 225C1093.58 225 1050.9 243.667 1017.57 281C984.231 318.333 967.229 372 966.562 442V728H938.559V212H965.562V336C979.564 293.333 1002.57 260 1034.57 236C1067.24 212 1105.58 200 1149.58 200Z" fill="white"/>
<path d="M1847.3 345V212H1874.31V708C1874.31 784.667 1856.64 841.667 1821.3 879C1785.96 917 1731.62 936 1658.28 936C1601.61 936 1556.94 922.333 1524.27 895C1491.6 867.667 1472.26 830 1466.26 782H1494.27C1499.6 823.333 1515.94 855.333 1543.27 878C1571.27 900.667 1609.61 912 1658.28 912C1723.62 912 1771.3 895.333 1801.3 862C1831.3 829.333 1846.3 778 1846.3 708V598C1829.63 642.667 1804.3 677.667 1770.3 703C1736.96 727.667 1697.29 740 1651.28 740C1583.28 740 1529.6 715 1490.27 665C1451.6 616.333 1432.26 551.333 1432.26 470C1432.26 388.667 1451.6 323.333 1490.27 274C1529.6 224.667 1583.28 200 1651.28 200C1697.95 200 1737.96 212.667 1771.3 238C1805.3 263.333 1830.63 299 1847.3 345ZM1654.28 715C1712.96 715 1759.96 692.333 1795.3 647C1829.97 602.333 1847.3 543.333 1847.3 470C1847.3 396.667 1829.97 337.667 1795.3 293C1759.96 247.667 1712.96 225 1654.28 225C1593.61 225 1545.94 247.333 1511.27 292C1477.26 336 1460.26 395.333 1460.26 470C1460.26 543.333 1477.6 602.333 1512.27 647C1547.61 692.333 1594.94 715 1654.28 715Z" fill="white"/>
<path d="M2362.37 498V212H2389.38V728H2363.37V601C2350.04 645 2327.04 679.333 2294.37 704C2262.36 728 2223.69 740 2178.35 740C2119.68 740 2074.34 723 2042.34 689C2010.34 654.333 1994.33 605.333 1994.33 542V212H2022.34V539C2022.34 597 2036.01 641 2063.34 671C2090.68 700.333 2130.35 715 2182.35 715C2235.03 715 2277.7 696.333 2310.37 659C2343.7 621.667 2361.04 568 2362.37 498Z" fill="white"/>
<path d="M2762.18 507L2873.19 212H2903.2L2682.17 793C2665.5 839 2646.17 872.667 2624.17 894C2602.16 915.333 2574.49 926 2541.16 926C2522.49 926 2510.15 925.667 2504.15 925V901C2510.15 901.667 2522.49 902 2541.16 902C2567.83 902 2589.83 892.667 2607.16 874C2625.17 855.333 2641.83 826.333 2657.17 787C2659.84 777.667 2665.84 761.667 2675.17 739L2461.15 212H2491.15L2609.16 506C2661.17 638.667 2687.51 706 2688.17 708C2696.17 684.667 2720.84 617.667 2762.18 507Z" fill="white"/>
<path d="M3375.58 468V477H2955.54C2956.87 551 2974.87 609.333 3009.54 652C3044.21 694 3092.88 715 3155.56 715C3203.56 715 3243.9 700.667 3276.57 672C3309.24 642.667 3330.24 603 3339.58 553H3366.58C3357.91 609.667 3334.58 655 3296.57 689C3258.57 723 3211.56 740 3155.56 740C3083.55 740 3027.54 715.333 2987.54 666C2947.54 616.667 2927.53 551.333 2927.53 470C2927.53 390 2947.2 324.667 2986.54 274C3025.88 224.667 3080.88 200 3151.56 200C3222.9 200 3278.24 225 3317.57 275C3356.25 324.333 3375.58 388.667 3375.58 468ZM3151.56 225C3092.88 225 3046.21 245.333 3011.54 286C2977.54 326 2958.87 381.333 2955.54 452H3346.58C3343.91 382.667 3325.58 327.667 3291.57 287C3257.57 245.667 3210.9 225 3151.56 225Z" fill="white"/>
<path d="M3685.98 200C3744.65 200 3789.99 217 3822 251C3854 285 3870 334 3870 398V728H3843V401C3843 343.667 3829 300 3800.99 270C3773.66 240 3733.99 225 3681.98 225C3629.97 225 3587.3 243.667 3553.97 281C3520.63 318.333 3503.63 372 3502.96 442V728H3474.96V212H3501.96V336C3515.96 293.333 3538.97 260 3570.97 236C3603.64 212 3641.98 200 3685.98 200Z" fill="white"/>
</svg>
