<svg width="170" height="100" viewBox="0 0 170 100" fill="none" xmlns="http://www.w3.org/2000/svg">
<g opacity="0.4">
<path d="M126.853 6.08293L127.392 7.23181C128.37 2.35374 134.225 2.92856 134.225 2.92856C140.993 3.53577 147.055 11.4341 150.318 16.5713C155.403 24.5654 158.817 34.0593 159.009 43.6091C159.017 43.7861 159.149 43.8155 159.274 43.7499C159.491 43.5895 159.716 43.438 159.936 43.2738C160.203 43.0742 160.467 42.867 160.725 42.6545C160.908 42.4993 161.091 42.3487 161.271 42.1905C161.391 42.079 161.465 41.8982 161.47 41.636C161.195 31.305 158.03 20.9379 151.567 12.7804C148.365 8.74158 142.529 3.1124 136.66 1.97631C136.66 1.97631 135.872 1.79625 134.706 1.79625C132.517 1.79625 128.989 2.42908 126.853 6.08293" fill="url(#paint0_linear)"/>
<path d="M120.004 25.8746C119.927 25.8942 119.919 26.1383 119.947 26.3907C121.531 38.7339 132.088 48.2769 144.883 48.2769C148.324 48.2769 151.605 47.5845 154.596 46.3339C154.961 46.1727 154.94 46.065 154.742 46.0024C139.217 46.3076 125.556 36.5574 120.092 25.9146C120.067 25.8912 120.047 25.8784 120.028 25.8746H120.004Z" fill="url(#paint1_linear)"/>
<path d="M128.713 6.14931L128.649 6.19451C128.649 6.19451 125.593 8.39132 123.475 11.3754C121.35 14.3558 120.43 17.1628 120.107 18.7909C119.872 19.9759 119.822 20.5801 119.866 20.8656C119.862 20.8754 119.861 20.8852 119.861 20.8958C119.861 21.0035 119.903 21.066 119.966 21.0954C120.114 21.1873 120.488 20.9606 120.757 20.8167C120.961 20.6984 121.642 20.3631 122.246 20.0904C124.148 19.2572 126.289 18.5844 128.528 18.1151C128.408 17.9245 128.255 17.7407 128.127 17.5433C127.218 16.1812 126.524 14.6051 126.128 13.0954C124.545 14.1192 123.03 15.3472 121.622 16.7786C127.714 2.93767 155.23 -6.29336 168.896 16.8969C169.023 17.1101 169.169 17.1139 169.169 16.93C169.183 16.8502 169.149 16.7198 169.129 16.6114C169.105 16.5164 169.08 16.4238 169.052 16.3326C168.926 15.8731 168.431 14.6217 168.072 13.8337C163.583 4.58605 154.869 0.377726 146.002 0.373959C139.863 0.373959 133.651 2.39376 128.713 6.14931" fill="url(#paint2_linear)"/>
<path d="M130.767 3.28263C129.848 3.56137 128.917 4.00813 127.991 4.62514C127.844 4.75322 127.707 4.89486 127.569 5.02595C124.661 8.65041 125.562 13.7055 128.122 17.5402C131.161 22.0935 136.397 25.7662 141.093 28.4256C146.101 31.256 151.518 33.422 157.111 34.769C159.741 35.4018 162.109 35.5367 164.809 35.7205C165.203 35.7461 165.606 35.7634 166.011 35.7702C166.405 35.7732 166.687 35.5894 166.845 35.3431C166.956 35.1396 167.173 34.7351 167.173 34.7351C167.258 34.5784 167.748 33.5538 167.896 33.2253C158.92 32.8178 150.296 28.8859 142.621 24.4802C138.494 22.1101 134.149 19.6443 130.945 16.0628C128.741 13.6008 126.932 10.1903 127.435 6.87771C127.782 5.46891 129.035 3.9034 130.78 3.28263H130.767Z" fill="url(#paint3_linear)"/>
<path d="M141.137 8.79117C136.685 8.83411 132.258 9.77885 128.211 11.8868C128.876 13.4237 129.857 14.8611 130.937 16.0657C131.384 16.5682 131.912 17.1069 132.369 17.5175C145.58 16.0861 161.619 20.9212 166.542 35.6353H166.549C166.687 35.5524 166.791 35.4447 166.858 35.3166C168.853 31.7155 170 27.5825 170 23.1738C170 23.0977 169.993 23.0156 169.993 22.9402C169.966 22.3948 169.552 21.4267 168.788 20.534C162.889 13.9653 152.331 8.89966 141.805 8.79117H141.137Z" fill="url(#paint4_linear)"/>
<path d="M8.75828 94.243C8.75828 94.9068 8.7967 95.5562 8.8871 96.0752H7.62144L7.5122 95.1132H7.467C7.0421 95.7136 6.21641 96.2493 5.13231 96.2493C3.5894 96.2493 2.80515 95.1591 2.80515 94.0562C2.80515 92.2112 4.4377 91.21 7.38488 91.2198V91.0585C7.38488 90.4317 7.21387 89.2964 5.65364 89.2964C4.94622 89.2964 4.20189 89.5187 3.66851 89.8645L3.34908 88.9514C3.98266 88.5378 4.89499 88.2718 5.86006 88.2718C8.19174 88.2718 8.75828 89.8645 8.75828 91.3908V94.243ZM7.41803 92.1818C5.90526 92.1494 4.18758 92.4176 4.18758 93.895C4.18758 94.7975 4.78425 95.2217 5.49543 95.2217C6.48762 95.2217 7.11744 94.5911 7.33441 93.9477C7.38488 93.8068 7.41803 93.6456 7.41803 93.5108V92.1818Z" fill="#646464"/>
<path d="M12.4144 86.3015C12.4325 86.7678 12.0859 87.149 11.5352 87.149C11.0448 87.149 10.6952 86.7678 10.6952 86.3015C10.6952 85.8156 11.0613 85.4321 11.5661 85.4321C12.0859 85.4321 12.4144 85.8156 12.4144 86.3015ZM10.87 88.4426H12.2524V96.075H10.87V88.4426Z" fill="#646464"/>
<path d="M14.7378 90.8225C14.7378 89.9267 14.722 89.1545 14.6738 88.4426H15.8829L15.9296 89.9455H15.9952C16.3432 88.9217 17.175 88.2746 18.1046 88.2746C18.2681 88.2746 18.3751 88.2881 18.5001 88.3213V89.6276C18.357 89.6012 18.2146 89.5817 18.0293 89.5817C17.0454 89.5817 16.3606 90.3237 16.1685 91.3611C16.1361 91.551 16.1089 91.7747 16.1089 92.0105V96.075H14.7378V90.8225Z" fill="#646464"/>
<path d="M20.0536 90.9374C20.0536 89.9588 20.0227 89.1678 19.9919 88.4423H21.2319L21.3012 89.7561H21.3276C21.8979 88.8227 22.7951 88.272 24.0435 88.272C25.8847 88.272 27.2694 89.8307 27.2694 92.1488C27.2694 94.8896 25.5992 96.2457 23.8016 96.2457C22.7951 96.2457 21.9137 95.8057 21.4534 95.0478H21.427V99.1936H20.0536V90.9374ZM21.427 92.973C21.427 93.1734 21.4534 93.367 21.4888 93.5373C21.7419 94.4963 22.5744 95.1593 23.5689 95.1593C25.0342 95.1593 25.8847 93.9645 25.8847 92.2106C25.8847 90.6881 25.0809 89.3787 23.6186 89.3787C22.6739 89.3787 21.7871 90.0507 21.5189 91.0949C21.4707 91.2719 21.427 91.4723 21.427 91.6599V92.973Z" fill="#646464"/>
<path d="M35.7585 92.1945C35.7585 95.0174 33.805 96.2454 31.9623 96.2454C29.8988 96.2454 28.3024 94.7386 28.3024 92.3195C28.3024 89.7679 29.9704 88.2747 32.0843 88.2747C34.2804 88.2747 35.7585 89.8636 35.7585 92.1945ZM29.709 92.2766C29.709 93.9476 30.6703 95.208 32.0218 95.208C33.3478 95.208 34.3392 93.9642 34.3392 92.2404C34.3392 90.9537 33.6928 89.3189 32.0587 89.3189C30.4179 89.3189 29.709 90.8226 29.709 92.2766" fill="#646464"/>
<path d="M37.2807 90.8225C37.2807 89.9267 37.2657 89.1545 37.2122 88.4426H38.4289L38.4794 89.9455H38.5381C38.8862 88.9217 39.7217 88.2746 40.6528 88.2746C40.811 88.2746 40.9218 88.2881 41.0446 88.3213V89.6276C40.9052 89.6012 40.7613 89.5817 40.5737 89.5817C39.5951 89.5817 38.9028 90.3237 38.7159 91.3611C38.6843 91.551 38.6504 91.7747 38.6504 92.0105V96.075H37.2807V90.8225Z" fill="#646464"/>
<path d="M44.856 86.6137V88.4428H46.8427V89.4998H44.856V93.6162C44.856 94.5617 45.1287 95.0966 45.8979 95.0966C46.2761 95.0966 46.4946 95.0642 46.7018 95.0017L46.7598 96.0428C46.4946 96.1506 46.0712 96.2493 45.5348 96.2493C44.8877 96.2493 44.3656 96.0293 44.0356 95.6451C43.6454 95.2375 43.503 94.5617 43.503 93.6614V89.4998H42.3172V88.4428H43.503V87.0401L44.856 86.6137Z" fill="#646464"/>
<path d="M51.7269 94.8343C52.1661 95.0935 52.9157 95.385 53.6238 95.385C54.6469 95.385 55.1396 94.8825 55.1396 94.2173C55.1396 93.537 54.729 93.1626 53.6924 92.7723C52.2633 92.2533 51.598 91.4893 51.598 90.5469C51.598 89.2827 52.6362 88.2453 54.3109 88.2453C55.1057 88.2453 55.8033 88.4518 56.2252 88.7305L55.884 89.7521C55.5743 89.578 55.0063 89.2985 54.2732 89.2985C53.4317 89.2985 52.9759 89.7852 52.9759 90.3691C52.9759 91.0358 53.4317 91.3281 54.4548 91.7184C55.8033 92.2209 56.519 92.9004 56.519 94.0855C56.519 95.4837 55.4312 96.4556 53.5945 96.4556C52.7318 96.4556 51.937 96.2318 51.3893 95.9041L51.7269 94.8343Z" fill="#646464"/>
<path d="M58.9023 86.9719C58.3674 86.9719 58.0095 86.5515 58.0095 86.046C58.0095 85.5465 58.3847 85.1397 58.9362 85.1397C59.4869 85.1397 59.844 85.5465 59.844 86.046C59.844 86.5515 59.4869 86.9719 58.9173 86.9719H58.9023ZM58.2197 88.4199H59.6481V96.2791H58.2197V88.4199Z" fill="#646464"/>
<path d="M61.8903 90.5467C61.8903 89.7157 61.8745 89.0723 61.8248 88.4229H63.0912L63.1748 89.7029H63.2057C63.5952 88.9706 64.5045 88.2451 65.8003 88.2451C66.8874 88.2451 68.5803 88.8923 68.5803 91.5909V96.2783H67.1481V91.7521C67.1481 90.4842 66.6773 89.4144 65.3317 89.4144C64.4051 89.4144 63.6773 90.0773 63.4167 90.8751C63.3496 91.0522 63.3165 91.3121 63.3165 91.5381V96.2783H61.8903V90.5467Z" fill="#646464"/>
<path d="M77.4897 95.1265C77.4897 96.9451 77.113 98.0315 76.3702 98.7306C75.589 99.4267 74.486 99.6731 73.4961 99.6731C72.5551 99.6731 71.5125 99.4463 70.8819 99.0297L71.2375 97.92C71.7603 98.2613 72.5702 98.5536 73.5413 98.5536C75.0074 98.5536 76.0749 97.7882 76.0749 95.7925V94.9321H76.0432C75.6221 95.6644 74.7618 96.249 73.5413 96.249C71.5938 96.249 70.2001 94.5909 70.2001 92.3986C70.2001 89.7361 71.9351 88.249 73.753 88.249C75.1196 88.249 75.8489 88.9413 76.2052 89.5945H76.2391L76.2896 88.42H77.5538C77.507 88.9707 77.4897 89.6081 77.4897 90.5664V95.1265ZM76.0613 91.5051C76.0613 91.2821 76.0432 91.0651 75.9769 90.8722C75.7216 90.0277 75.036 89.3482 73.982 89.3482C72.6192 89.3482 71.6458 90.5008 71.6458 92.336C71.6458 93.8624 72.4391 95.1589 73.9692 95.1589C74.8574 95.1589 75.656 94.6044 75.9438 93.6815C76.0274 93.4548 76.0613 93.176 76.0613 92.9199V91.5051Z" fill="#646464"/>
<path d="M85.2493 94.3943C85.2493 95.0731 85.2786 95.7436 85.3615 96.2785H84.08L83.9467 95.2901H83.9007C83.4773 95.9079 82.6155 96.4556 81.4967 96.4556C79.9079 96.4556 79.0927 95.3361 79.0927 94.2037C79.0927 92.303 80.7818 91.2656 83.8171 91.2784V91.1142C83.8171 90.4678 83.6423 89.2827 82.0309 89.2985C81.2843 89.2985 80.5249 89.5095 79.9696 89.8839L79.6472 88.9249C80.2981 88.5211 81.2541 88.2453 82.2426 88.2453C84.6624 88.2453 85.2493 89.8839 85.2493 91.4562V94.3943ZM83.8495 92.2706C82.2908 92.2374 80.5249 92.5132 80.5249 94.0395C80.5249 94.9782 81.1419 95.4016 81.8523 95.4016C82.8935 95.4016 83.5602 94.7552 83.787 94.0892C83.8344 93.9408 83.8495 93.7773 83.8495 93.6319V92.2706Z" fill="#646464"/>
<path d="M87.4063 90.9896C87.4063 89.9816 87.3898 89.168 87.337 88.4199H88.6253L88.7036 89.7654H88.7376C89.3026 88.7936 90.2473 88.2451 91.5137 88.2451C93.4288 88.2451 94.8609 89.8506 94.8609 92.2372C94.8609 95.0601 93.1222 96.4561 91.2854 96.4561C90.2322 96.4561 89.3372 96.0056 88.8664 95.2243H88.834V99.4922H87.4063V90.9896ZM88.834 93.081C88.834 93.2746 88.8483 93.4878 88.8973 93.6656C89.1414 94.6571 90.019 95.3396 91.0293 95.3396C92.5383 95.3396 93.416 94.1056 93.416 92.2998C93.416 90.7305 92.6031 89.3812 91.0903 89.3812C90.12 89.3812 89.1911 90.0615 88.9169 91.1343C88.8837 91.3279 88.834 91.5389 88.834 91.7151V93.081Z" fill="#646464"/>
<path d="M99.7258 96.4561C97.6149 96.4561 95.959 94.9003 95.959 92.415C95.959 89.7819 97.697 88.2458 99.8554 88.2458C102.111 88.2458 103.64 89.8837 103.64 92.2703C103.64 95.1919 101.609 96.4561 99.7409 96.4561H99.7258ZM99.7778 95.3855C101.142 95.3855 102.16 94.1055 102.16 92.3163C102.16 90.9866 101.5 89.3156 99.8095 89.3156C98.1355 89.3156 97.4017 90.8721 97.4017 92.3683C97.4017 94.089 98.3781 95.3855 99.7605 95.3855H99.7778Z" fill="#646464"/>
<path d="M105.325 90.8718C105.325 89.9489 105.31 89.1518 105.259 88.4196H106.513L106.575 89.9655H106.624C106.982 88.9085 107.859 88.2455 108.818 88.2455C108.962 88.2455 109.076 88.2583 109.205 88.2915V89.6242C109.041 89.6076 108.899 89.5948 108.703 89.5948C107.698 89.5948 106.982 90.3535 106.785 91.4104C106.754 91.6199 106.737 91.8466 106.737 92.0892V96.2817H105.31L105.325 90.8718Z" fill="#646464"/>
<path d="M111.207 92.5919C111.234 94.5251 112.453 95.3199 113.883 95.3199C114.909 95.3199 115.539 95.1458 116.059 94.9356L116.319 95.9369C115.818 96.1636 114.937 96.4424 113.689 96.4424C111.284 96.4424 109.826 94.8347 109.826 92.4804C109.826 90.0937 111.234 88.2254 113.529 88.2254C116.094 88.2254 116.755 90.484 116.755 91.9289C116.755 92.2212 116.742 92.448 116.712 92.6077L111.207 92.5919ZM115.378 91.5741C115.393 90.6776 115.006 89.2469 113.414 89.2469C111.953 89.2469 111.334 90.5797 111.221 91.5741H115.378Z" fill="#646464"/>
<path d="M160.75 55.2103L160.749 55.2005C159.327 56.2379 157.818 57.157 156.225 57.9382H156.235C155.972 58.0595 155.877 58.3714 155.877 58.5944V78.7117H161.471V55.706C161.471 54.5435 160.75 55.2103 160.75 55.2103ZM80.9926 72.3035L84.3308 78.6265H90.1295L89.9065 78.1971L76.846 52.9554H72.8381L59.682 78.6265H65.4807L68.7262 72.3035L68.736 72.2809L68.7465 72.2877H80.9873L80.9926 72.3035ZM71.2123 67.4262L71.2477 67.3636L74.821 60.45L74.8383 60.4168L74.8564 60.45L78.4771 67.3636L78.5035 67.4262H71.2123ZM50.9143 62.2686H37.936V62.2264L37.939 52.9554H32.3384V78.6265H37.936V67.0879H50.9143V78.6265H56.4583V52.9554H50.9143V62.2686ZM98.8874 62.7809L98.9605 62.8555L114.101 78.6235H117.412V52.9554H111.863V68.8011L111.794 68.725L96.6981 52.9554H93.3411V78.6235H98.8874V62.7809ZM23.3846 68.7581C20.9806 72.6847 18.3024 74.3692 14.589 74.3783C9.37494 74.3692 5.65781 70.8066 5.64425 65.8599C5.65781 60.8734 9.37494 57.2956 14.589 57.2888C18.0681 57.2956 20.7448 58.8641 22.6742 62.0381L22.8264 62.301L27.5229 59.2845L27.3368 59.0284C24.1591 54.6618 19.8355 52.4198 14.589 52.4266C6.17689 52.4432 0.0150674 58.0799 0 65.8599C0.0150674 73.6076 6.17689 79.224 14.589 79.2375H14.6063C20.3041 79.2375 24.9132 76.6309 27.8589 71.749L28.002 71.5064L23.5466 68.493L23.3846 68.7581ZM137.099 57.2888C140.579 57.2956 143.257 58.8641 145.188 62.0381L145.342 62.298L150.031 59.2845L149.849 59.0314C146.674 54.6618 142.352 52.4198 137.099 52.4236C128.688 52.4432 122.527 58.0799 122.52 65.8599C122.527 73.6076 128.691 79.224 137.099 79.2375C142.613 79.2473 147.093 76.893 149.953 72.4745L150.004 72.4022V64.3065H137.379V69.1265H144.449L144.456 69.1687V70.8563L144.444 70.8623C142.599 73.2362 140.236 74.3692 137.099 74.3783C131.889 74.3692 128.172 70.8066 128.163 65.8599C128.172 60.8832 131.889 57.2956 137.099 57.2888" fill="#646464"/>
</g>
<defs>
<linearGradient id="paint0_linear" x1="126.846" y1="22.7912" x2="161.465" y2="22.7912" gradientUnits="userSpaceOnUse">
<stop stop-color="#C8C8C8"/>
<stop offset="0.384613" stop-color="#C2C2C2"/>
<stop offset="0.848958" stop-color="#787878"/>
<stop offset="0.941751" stop-color="#676767"/>
<stop offset="1" stop-color="#696969"/>
</linearGradient>
<linearGradient id="paint1_linear" x1="153.189" y1="37.0816" x2="118.374" y2="37.0816" gradientUnits="userSpaceOnUse">
<stop stop-color="#C8C8C8"/>
<stop offset="0.0846494" stop-color="#C6C6C6"/>
<stop offset="0.62088" stop-color="#787878"/>
<stop offset="0.817708" stop-color="#5C5C5C"/>
<stop offset="0.967504" stop-color="#595959"/>
<stop offset="1" stop-color="#575757"/>
</linearGradient>
<linearGradient id="paint2_linear" x1="119.818" y1="7.44131" x2="169.181" y2="7.44131" gradientUnits="userSpaceOnUse">
<stop stop-color="#C8C8C8"/>
<stop offset="0.0846494" stop-color="#C4C4C4"/>
<stop offset="0.62088" stop-color="#777777"/>
<stop offset="0.967504" stop-color="#5B5B5B"/>
<stop offset="1" stop-color="#575757"/>
</linearGradient>
<linearGradient id="paint3_linear" x1="125.798" y1="19.5422" x2="167.92" y2="19.5422" gradientUnits="userSpaceOnUse">
<stop stop-color="#C8C8C8"/>
<stop offset="0.384613" stop-color="#7C7C7C"/>
<stop offset="0.941751" stop-color="#6C6C6C"/>
<stop offset="1" stop-color="#636363"/>
</linearGradient>
<linearGradient id="paint4_linear" x1="119.948" y1="22.2142" x2="169.712" y2="22.2142" gradientUnits="userSpaceOnUse">
<stop stop-color="#595959"/>
<stop offset="0.0846494" stop-color="#C2C2C2"/>
<stop offset="0.62088" stop-color="#6A6A6A"/>
<stop offset="0.967504" stop-color="#5C5C5C"/>
<stop offset="1" stop-color="#575757"/>
</linearGradient>
</defs>
</svg>
