<svg width="130" height="130" viewBox="0 0 130 130" fill="none" xmlns="http://www.w3.org/2000/svg">
<path d="M65 130C52.1442 130 39.5771 126.188 28.888 119.046C18.1988 111.903 9.86755 101.752 4.94786 89.8744C0.0281635 77.9972 -1.25905 64.9279 1.24899 52.3191C3.75702 39.7104 9.94767 28.1285 19.0381 19.0381C28.1285 9.94767 39.7104 3.75702 52.3191 1.24899C64.9279 -1.25905 77.9972 0.0281635 89.8744 4.94786C101.752 9.86755 111.903 18.1988 119.046 28.888C126.188 39.5771 130 52.1442 130 65C129.981 82.2334 123.127 98.7556 110.941 110.941C98.7556 123.127 82.2334 129.981 65 130V130Z" fill="#CDCDCD"/>
<path d="M75.0172 64.0193H74.3658C74.2607 64.6287 74.1346 66.3309 73.1049 67.3747C72.1802 68.3134 71.4166 68.3974 70.2188 68.3974H66.8774V61.1262H68.3694C70.3939 61.1262 70.6741 62.5902 70.9963 64.1804H71.5778V57.6026H70.9963C70.6741 59.2418 70.4569 60.4677 68.0752 60.4677H66.8774V53.7498H70.1207C73.1959 53.7498 73.5112 55.9424 73.8824 57.3084H74.5269V53.0283H61.9808V53.7288H64.3485V68.3974H61.9808V69.0979H75.0172V64.0193Z" fill="white"/>
<path d="M47.8726 68.3974C48.7483 68.3974 49.3787 69.5463 52.2508 69.5463C53.0087 69.5534 53.7605 69.4089 54.4618 69.1214C55.1631 68.8339 55.7999 68.4091 56.3347 67.872C57.2991 66.9233 57.8482 65.6311 57.8619 64.2784C57.8619 58.3872 48.5872 60.1174 48.5872 55.9915C48.5872 54.1631 50.1913 53.2945 51.7324 53.2945C54.1282 53.2945 55.312 55.2489 55.7183 57.3364H56.3698V53.0283H55.7533C55.6763 53.5257 55.5082 53.6518 55.298 53.6518C54.7796 53.6518 53.6938 52.601 51.7324 52.601C51.1163 52.574 50.5011 52.6738 49.9251 52.8942C49.3491 53.1147 48.8246 53.4511 48.3839 53.8826C47.9432 54.314 47.5958 54.8314 47.3633 55.4026C47.1308 55.9739 47.018 56.5868 47.032 57.2033C47.032 61.7216 52.6361 61.4064 54.9127 63.4238C55.2031 63.6785 55.4343 63.9935 55.5904 64.3468C55.7465 64.7001 55.8236 65.0832 55.8164 65.4693C55.8333 66.2475 55.5697 67.0058 55.0738 67.6059C54.732 68.0126 54.302 68.3363 53.8166 68.5523C53.3311 68.7683 52.8029 68.8711 52.2718 68.8528C49.1125 68.8528 48.0688 66.8983 47.4103 64.0193H46.7098V69.1189H47.3262C47.4243 68.4815 47.7465 68.4184 47.9077 68.4184" fill="white"/>
<path d="M62.6603 81.2096C63.9843 82.5476 64.2855 84.6 64.4466 85.5877H65.2872C65.4484 84.6 65.7496 82.5476 67.0665 81.2096C68.4675 79.7665 70.1488 79.6615 71.5147 79.6615H112.501V78.7718H71.4517C69.2451 78.7718 67.8861 79.052 66.394 80.5721C65.5494 81.4474 65.0048 82.5685 64.8389 83.7734C64.6836 82.5669 64.1489 81.4409 63.3118 80.5581C61.8127 79.038 60.4537 78.7578 58.2542 78.7578H16.9733V79.6475H58.2191C59.6201 79.6475 61.2453 79.7525 62.6603 81.1956" fill="white"/>
<path d="M37.7223 53.7498H40.062V64.5446L32.8257 53.0283H27.9642V53.7498H30.2969V68.3974H27.9642V69.119H33.4142V68.3974H31.0745V54.9337L40.062 69.2521H40.8395V53.7498H43.1722V53.0283H37.7223V53.7498Z" fill="white"/>
<path d="M16.9733 68.3974V69.119H24.2025V68.3974H21.8628V53.7498H24.2025V53.0283H16.9733V53.7498H19.334V68.3974H16.9733Z" fill="white"/>
<path d="M109.98 54.8077C108.216 53.514 106.063 52.8615 103.878 52.9584C102.554 52.9584 101.216 53.0284 99.8922 53.0284H97.3704V53.729H99.7031V68.3976H97.3704V69.0981H99.542C101.896 69.0981 103.045 69.1961 103.955 69.1961C106.645 69.1961 108.649 68.8109 110.603 66.8284C111.342 66.0839 111.926 65.2003 112.321 64.2289C112.717 63.2574 112.916 62.2172 112.908 61.1683C112.947 59.9536 112.702 58.7465 112.194 57.6426C111.686 56.5386 110.928 55.568 109.98 54.8077V54.8077ZM108.13 67.1436C107.016 68.2715 105.622 68.5447 103.927 68.5447C103.318 68.5447 102.246 68.4466 102.246 68.4466V53.736C102.505 53.736 103.22 53.736 103.864 53.736C104.768 53.6903 105.67 53.8565 106.498 54.2214C107.327 54.5862 108.058 55.1397 108.635 55.8375C109.699 57.2385 110.092 59.4101 110.092 61.3014C110.071 63.9984 109.167 66.0509 108.095 67.1436H108.13Z" fill="white"/>
<path d="M92.5229 68.3975L86.7858 52.7341H85.9732L80.2711 68.3975H78.3587V69.098H83.3183V68.3975H81.1117L82.8349 63.4939H88.0187L89.7699 68.3975H87.5633V69.098H94.4423V68.3975H92.5229ZM83.0941 62.7934L85.4618 56.3838L87.7945 62.8004L83.0941 62.7934Z" fill="white"/>
</svg>
