<svg width="170" height="98" viewBox="0 0 170 98" fill="none" xmlns="http://www.w3.org/2000/svg">
<path d="M24.2646 96.6915C24.1444 96.838 24.0241 96.9553 23.8437 97.0432C23.6633 97.1311 23.4829 97.1605 23.2724 97.1605C23.0619 97.1605 22.8815 97.1311 22.7011 97.0432C22.5207 96.9846 22.4005 96.8674 22.2802 96.7501C22.1599 96.6329 22.0697 96.457 22.0096 96.3105C21.9494 96.1346 21.9194 95.9588 21.9194 95.7536C21.9194 95.5484 21.9494 95.3726 22.0096 95.1967C22.0697 95.0209 22.1599 94.8743 22.2802 94.7278C22.4005 94.6105 22.5508 94.4933 22.7011 94.4054C22.8815 94.3174 23.0619 94.2881 23.2724 94.2881C23.4528 94.2881 23.6332 94.3174 23.7836 94.4054C23.9339 94.4933 24.0842 94.5812 24.1444 94.6985L24.1744 94.7278L24.6856 94.3467L24.6555 94.3174C24.5954 94.2295 24.5052 94.1416 24.3849 94.0536C24.2947 93.995 24.1744 93.9071 24.0542 93.8778C23.9339 93.8192 23.8136 93.7899 23.6633 93.7606C23.2423 93.6726 22.8214 93.7312 22.4305 93.8778C22.19 93.9657 21.9494 94.1123 21.769 94.2881C21.5886 94.464 21.4383 94.6691 21.3481 94.9036C21.2579 95.1381 21.1978 95.4312 21.1978 95.7243C21.1978 96.0174 21.2579 96.2812 21.3481 96.5156C21.4383 96.7501 21.5886 96.9846 21.769 97.1605C21.9494 97.3363 22.1599 97.4829 22.4305 97.5708C22.6711 97.6587 22.9417 97.7173 23.2423 97.7173C23.5731 97.7173 23.8738 97.6587 24.1143 97.5415C24.3548 97.4242 24.5653 97.2484 24.7156 97.0432L24.7457 97.0139L24.2346 96.6622L24.2646 96.6915Z" fill="#CDCDCD"/>
<path d="M32.1424 95.6067C32.3228 95.4309 32.413 95.1964 32.413 94.9033C32.413 94.6981 32.383 94.5516 32.2928 94.405C32.2326 94.2585 32.1124 94.1705 31.9921 94.0826C31.8718 93.9947 31.7215 93.9361 31.5411 93.9068C31.3607 93.8774 31.2103 93.8481 30.9999 93.8481H29.7671V97.6291H30.3985V95.9877H30.8796L31.8117 97.5998V97.6291H32.5634L31.511 95.9291C31.7816 95.8705 31.9921 95.7533 32.1424 95.6067ZM30.3985 94.3757H30.9999C31.1201 94.3757 31.2103 94.3757 31.3306 94.405C31.4208 94.4343 31.511 94.4636 31.5711 94.4929C31.6313 94.5223 31.6914 94.5809 31.7515 94.6688C31.7816 94.7274 31.8117 94.8154 31.8117 94.9326C31.8117 95.0205 31.7816 95.1084 31.7515 95.1964C31.7215 95.255 31.6613 95.3136 31.5711 95.3722C31.511 95.4015 31.4208 95.4602 31.3005 95.4602C31.2103 95.4895 31.0901 95.4895 30.9698 95.4895H30.3985V94.3757V94.3757Z" fill="#CDCDCD"/>
<path d="M38.3057 95.9291H40.0797V95.4015H38.3057V94.3757H40.2V93.8481H37.6743V97.6291H40.2902V97.0722H38.3057V95.9291Z" fill="#CDCDCD"/>
<path d="M46.635 93.8481L44.9512 97.6291H45.6427L46.0336 96.7205H47.7474L48.1383 97.6291H48.8599L47.2062 93.8481H46.635ZM47.537 96.1636H46.2741L46.9056 94.6102L47.537 96.1636Z" fill="#CDCDCD"/>
<path d="M53.0093 94.3757H54.212V97.6291H54.8434V94.3757H56.0762V93.8481H53.0093V94.3757Z" fill="#CDCDCD"/>
<path d="M61.7286 95.9291H63.5326V95.4015H61.7286V94.3757H63.6228V93.8481H61.0972V97.6291H63.713V97.0722H61.7286V95.9291Z" fill="#CDCDCD"/>
<path d="M76.0709 95.4602L75.0486 93.8481H74.2969L75.7401 95.9877V97.6291H76.3715V95.9877L77.8448 93.8481H77.0931L76.0709 95.4602Z" fill="#CDCDCD"/>
<path d="M85.9627 94.2878C85.7823 94.112 85.5718 93.9947 85.3012 93.8775C85.0607 93.7896 84.7901 93.731 84.4894 93.731C84.1887 93.731 83.9181 93.7896 83.6776 93.8775C83.437 93.9654 83.1965 94.112 83.0161 94.2878C82.8357 94.4637 82.6854 94.6689 82.5952 94.9033C82.505 95.1378 82.4448 95.4309 82.4448 95.724C82.4448 96.0171 82.505 96.2809 82.5952 96.5154C82.6854 96.7498 82.8357 96.9843 83.0161 97.1602C83.1965 97.336 83.407 97.4826 83.6776 97.5705C83.9181 97.6584 84.1887 97.717 84.4894 97.717C84.7901 97.717 85.0607 97.6584 85.3012 97.5705C85.5418 97.4826 85.7823 97.336 85.9627 97.1602C86.1431 96.9843 86.2935 96.7791 86.3837 96.5154C86.4739 96.2809 86.534 96.0171 86.534 95.724C86.534 95.4309 86.4739 95.1671 86.3837 94.9033C86.2935 94.6689 86.1431 94.4637 85.9627 94.2878ZM84.4894 97.1602C84.2789 97.1602 84.0985 97.1309 83.9181 97.0429C83.7377 96.9843 83.6175 96.8671 83.4972 96.7498C83.3769 96.6326 83.2867 96.4567 83.2266 96.2809C83.1664 96.105 83.1364 95.9292 83.1364 95.724C83.1364 95.5188 83.1664 95.343 83.2266 95.1671C83.2867 94.9913 83.3769 94.8447 83.4972 94.6982C83.6175 94.5809 83.7678 94.4637 83.9181 94.4051C84.0985 94.3172 84.2789 94.2878 84.4894 94.2878C84.6999 94.2878 84.8803 94.3172 85.0607 94.4051C85.2411 94.493 85.3614 94.5809 85.4816 94.6982C85.6019 94.8154 85.6921 94.9913 85.7522 95.1671C85.8124 95.343 85.8424 95.5188 85.8424 95.724C85.8424 95.9292 85.8124 96.105 85.7522 96.2809C85.6921 96.4567 85.6019 96.6033 85.4816 96.7498C85.3614 96.8671 85.211 96.9843 85.0306 97.0429C84.8803 97.1016 84.6999 97.1602 84.4894 97.1602Z" fill="#CDCDCD"/>
<path d="M93.871 96.1636C93.871 96.2808 93.8409 96.3981 93.8109 96.5153C93.7808 96.6326 93.7207 96.7498 93.6605 96.8377C93.6004 96.9257 93.5102 97.0136 93.3899 97.0429C93.2697 97.1015 93.1494 97.1308 92.969 97.1308C92.7886 97.1308 92.6683 97.1015 92.548 97.0429C92.4278 96.9843 92.3376 96.9257 92.2774 96.8377C92.2173 96.7498 92.1572 96.6326 92.1271 96.5153C92.097 96.3981 92.067 96.2808 92.067 96.1636V93.8188H91.4355V96.1929C91.4355 96.3981 91.4656 96.5739 91.5257 96.7498C91.5859 96.9257 91.6761 97.1015 91.7964 97.2188C91.9166 97.3653 92.067 97.4825 92.2774 97.5705C92.4578 97.6584 92.6984 97.6877 92.9389 97.6877C93.1795 97.6877 93.42 97.6584 93.6004 97.5705C93.7808 97.4825 93.9612 97.3653 94.0815 97.2188C94.2017 97.0722 94.2919 96.9257 94.3521 96.7498C94.4122 96.5739 94.4423 96.3688 94.4423 96.1929V93.8188H93.8109V96.1636H93.871Z" fill="#CDCDCD"/>
<path d="M102.319 95.6067C102.5 95.4309 102.59 95.1964 102.59 94.9033C102.59 94.6981 102.56 94.5516 102.47 94.405C102.41 94.2585 102.289 94.1705 102.169 94.0826C102.049 93.9947 101.899 93.9361 101.718 93.9068C101.538 93.8774 101.387 93.8481 101.177 93.8481H99.9141V97.6291H100.545V95.9877H101.027L101.989 97.6291H102.74L101.688 95.9291C101.959 95.8705 102.169 95.7533 102.319 95.6067ZM100.576 94.3757H101.177C101.297 94.3757 101.387 94.3757 101.508 94.405C101.598 94.4343 101.688 94.4636 101.748 94.4929C101.808 94.5223 101.868 94.5809 101.929 94.6688C101.959 94.7274 101.989 94.8154 101.989 94.9326C101.989 95.0205 101.959 95.1084 101.929 95.1964C101.899 95.255 101.838 95.3136 101.748 95.3722C101.688 95.4015 101.598 95.4602 101.478 95.4602C101.387 95.4895 101.267 95.4895 101.147 95.4895H100.576V94.3757V94.3757Z" fill="#CDCDCD"/>
<path d="M116.331 95.8705C116.241 95.7826 116.151 95.724 116.061 95.6653C116 95.636 115.94 95.6067 115.88 95.6067C116.03 95.5481 116.121 95.4602 116.211 95.3722C116.331 95.2257 116.391 95.0498 116.391 94.8154C116.391 94.6395 116.361 94.4637 116.271 94.3464C116.211 94.2292 116.091 94.1119 115.97 94.0533C115.85 93.9654 115.73 93.9361 115.579 93.8775C115.429 93.8482 115.279 93.8188 115.128 93.8188H113.775V97.5998H115.068C115.279 97.5998 115.459 97.5705 115.64 97.5411C115.82 97.4825 115.97 97.4239 116.121 97.336C116.241 97.2481 116.361 97.1308 116.451 96.9843C116.542 96.8377 116.572 96.6912 116.572 96.486C116.572 96.3395 116.542 96.2222 116.512 96.1343C116.481 96.0464 116.421 95.9584 116.331 95.8705ZM114.467 95.9291H115.128C115.399 95.9291 115.61 95.9877 115.76 96.0757C115.91 96.1636 115.97 96.3101 115.97 96.5153C115.97 96.6326 115.94 96.7205 115.91 96.8084C115.85 96.8963 115.79 96.955 115.7 96.9843C115.61 97.0429 115.519 97.0722 115.399 97.0722C115.279 97.1015 115.189 97.1015 115.068 97.1015H114.467V95.9291ZM115.73 95.1085C115.7 95.1671 115.64 95.2257 115.579 95.255C115.519 95.2843 115.429 95.3429 115.369 95.3429C115.279 95.3722 115.189 95.3722 115.098 95.3722H114.467V94.3757H115.008C115.249 94.3757 115.459 94.405 115.579 94.493C115.7 94.5809 115.79 94.6981 115.79 94.874C115.79 94.9619 115.76 95.0498 115.73 95.1085Z" fill="#CDCDCD"/>
<path d="M124.269 95.6067C124.45 95.4309 124.54 95.1964 124.54 94.9033C124.54 94.6981 124.51 94.5516 124.42 94.405C124.359 94.2585 124.239 94.1705 124.119 94.0826C123.999 93.9947 123.848 93.9361 123.668 93.9068C123.487 93.8774 123.337 93.8481 123.127 93.8481H121.864V97.6291H122.495V95.9877H122.976L123.938 97.6291H124.69L123.638 95.9291C123.908 95.8705 124.119 95.7533 124.269 95.6067ZM122.525 94.3757H123.127C123.247 94.3757 123.337 94.3757 123.457 94.405C123.548 94.4343 123.638 94.4636 123.698 94.4929C123.758 94.5223 123.818 94.5809 123.878 94.6688C123.908 94.7274 123.938 94.8154 123.938 94.9326C123.938 95.0205 123.908 95.1084 123.878 95.1964C123.848 95.255 123.788 95.3136 123.698 95.3722C123.638 95.4015 123.548 95.4602 123.427 95.4602C123.337 95.4895 123.217 95.4895 123.097 95.4895H122.525V94.3757V94.3757Z" fill="#CDCDCD"/>
<path d="M130.342 95.9291H132.116V95.4015H130.342V94.3757H132.237V93.8481H129.711V97.6291H132.297V97.0722H130.342V95.9291Z" fill="#CDCDCD"/>
<path d="M138.671 93.8481L137.017 97.5705L136.987 97.6291H137.679L138.07 96.7205H139.784L140.174 97.6291H140.896L139.242 93.8481H138.671ZM139.573 96.1636H138.31L138.942 94.6102L139.573 96.1636Z" fill="#CDCDCD"/>
<path d="M147.03 95.5774L148.924 93.8481H148.022L146.399 95.4015V93.8481H145.767V97.6291H146.399V95.7826L148.112 97.5998V97.6291H149.014L147.03 95.5774Z" fill="#CDCDCD"/>
<path d="M169.039 72.5992C167.626 72.5992 166.483 74.0354 165.311 78.3732C164.499 81.2748 161.492 84.4109 159.989 84.4109C159.237 84.4109 158.876 83.9127 159.478 81.8024L161.913 72.9509C161.913 72.9509 161.643 72.5992 160.921 72.5992C159.778 72.5992 158.786 73.5664 157.824 76.2336C157.553 77.0249 157.283 77.8456 157.042 78.6663C156.651 79.9266 156.291 81.2748 155.028 82.9454C153.615 84.7919 152.201 85.4954 151.209 85.4954C150.007 85.4954 149.405 84.4988 150.157 81.7438C150.999 78.6956 153.013 76.9077 152.713 74.7388C152.562 73.5957 151.63 72.9216 149.736 72.9216C149.165 72.9216 147.541 72.9216 146.248 72.9216C146.068 71.2217 145.286 70.02 144.264 70.02C143.362 70.02 142.67 70.6648 142.43 71.8079C142.189 72.9802 142.85 74.2992 144.294 74.7388C144.294 74.7681 144.294 74.7974 144.294 74.8267C143.963 75.7353 142.82 76.2043 141.648 76.4387C141.467 75.6474 141.167 74.9733 140.716 74.3871C140.716 74.3871 140.716 74.3871 140.686 74.3578C139.784 73.1854 138.431 72.5113 136.897 72.5113C133.469 72.5113 130.162 74.9147 128.749 79.9852C128.629 80.4541 128.538 80.9231 128.508 81.3627C128.478 81.7438 128.478 82.2713 128.538 82.8575C127.666 83.9713 126.584 84.7626 125.532 85.173C125.051 85.3488 124.569 85.4367 124.118 85.4367C122.946 85.4367 121.743 84.4402 122.495 81.6851L124.359 74.8853C125.201 74.8853 126.013 74.8853 126.734 74.8853C129.982 74.8853 130.553 72.863 130.553 72.863H124.93L125.471 70.8406C126.674 66.5322 126.043 65.0667 124.63 65.0667C123.878 65.0667 123.697 65.4184 123.697 65.4184C123.697 65.4184 121.803 72.1889 121.623 72.8337H118.706L118.165 74.856C118.165 74.856 119.368 74.856 120.991 74.856C118.315 82.5937 115.399 85.3781 113.475 85.3781C112.302 85.3781 111.671 84.3816 112.422 81.6265L114.858 72.8044C114.858 72.8044 114.587 72.4527 113.865 72.4527C113.084 72.4527 112.392 72.8923 111.731 74.0061C110.829 73.0389 109.596 72.4527 108.213 72.4527C104.755 72.4527 101.478 74.856 100.064 79.9266C99.854 80.7179 99.7638 81.48 99.7638 82.1834C98.5912 84.4109 97.0277 85.3781 96.1256 85.3781C94.953 85.3781 94.3216 84.3816 95.0733 81.6265L99.4331 65.7408C100.606 61.4323 100.004 59.9668 98.5912 59.9668C97.8395 59.9668 97.6591 60.3186 97.6591 60.3186L94.3216 72.4527C93.3594 75.9112 91.2246 77.2887 88.9997 77.2887C88.6088 77.2887 88.3081 77.2008 88.0375 77.0542C88.0375 76.937 88.0074 76.8491 88.0074 76.7318C87.5865 74.1526 85.602 72.4527 83.1966 72.4527C79.7689 72.4527 76.4615 74.856 75.0484 79.9266C74.9582 80.3076 74.868 80.6886 74.8078 81.0696C74.7477 81.5093 74.7477 81.9782 74.7777 82.4179C73.1541 84.3816 70.5683 85.6712 68.4335 85.6712C65.4869 85.6712 64.0136 83.2385 64.9156 79.9266C65.968 76.087 68.1629 74.2112 69.6963 74.2112C70.5984 74.2112 71.8612 74.8853 70.2376 77.5232C70.2376 77.5232 70.5382 78.1094 71.4102 78.1094C72.2821 78.1094 73.4548 77.5525 73.8457 76.1163C74.447 73.9474 72.9737 72.482 70.1774 72.482C67.9825 72.482 65.517 73.5664 63.743 75.8233C62.7207 76.8491 61.4579 77.318 60.195 77.318C59.6238 77.318 59.1727 77.1129 58.842 76.8491L58.7518 76.7611C58.3309 74.1819 56.3464 72.482 53.941 72.482C50.5133 72.482 47.2059 74.8853 45.7927 79.9559C45.5823 80.6886 45.4921 81.392 45.4921 82.0368C45.4921 82.4179 45.5221 82.7696 45.5823 83.092C44.4998 84.6747 43.2671 85.3781 42.4853 85.3781C41.3127 85.3781 40.6813 84.3816 41.4329 81.6265C42.1245 79.0766 42.8461 76.4974 42.8461 76.4974C43.5978 73.7423 42.786 72.4527 41.4329 72.4527C38.787 72.4527 36.111 74.7681 34.788 76.1163L37.6444 65.7408C38.8171 61.4323 38.2157 59.9668 36.8026 59.9668C36.0509 59.9668 35.8705 60.3186 35.8705 60.3186L33.5853 68.6131C30.6688 79.4283 18.4915 88.8073 10.7942 88.8073C6.34423 88.8073 3.66823 83.8833 6.04356 75.2371C8.99017 64.4512 17.6496 56.7721 22.8212 56.7721C25.4972 56.7721 27.1208 58.941 25.3168 65.4184C25.3168 65.4184 25.4671 66.1511 26.7901 66.1511C27.7523 66.1511 29.6164 65.3598 30.2178 63.1909C31.3303 59.1462 28.6843 54.1636 23.5127 54.1636C11.7263 54.2515 0 68.9648 0 80.6593C0 87.8694 3.6983 91.7676 9.62158 91.7676C16.4168 91.7676 25.407 86.6971 31.0597 77.8749L28.5641 86.9315C28.5641 86.9315 28.7745 87.4298 29.5262 87.4298C30.9394 87.4298 32.082 85.9936 33.2847 81.6558L33.9161 79.3404C34.9384 78.1387 37.2235 75.6181 38.5765 75.6181C39.3282 75.6181 39.659 76.1163 39.0877 78.2266C39.0877 78.2266 38.4262 80.63 37.7948 82.9748C37.1634 85.3195 38.1556 87.4298 40.7113 87.4298C42.365 87.4298 44.4397 86.5798 46.1535 84.8506C47.0255 86.4626 48.6491 87.4298 50.4832 87.4298C53.9109 87.4298 57.068 85.0264 58.4511 79.9559C58.5413 79.6335 58.6015 79.3111 58.6616 79.018L58.7518 79.0473C59.1427 79.1645 59.5937 79.2231 60.1048 79.2231C60.7062 79.2231 61.3376 79.1059 61.969 78.8421C61.8187 79.1938 61.6984 79.5749 61.6082 79.9559C60.4055 84.2937 62.871 87.4298 67.321 87.4298C69.6663 87.4298 72.8234 86.5212 75.2588 84.6454C76.1007 86.3746 77.7845 87.4298 79.7088 87.4298C83.1666 87.4298 86.2936 85.0264 87.7068 79.9559C87.797 79.6628 87.8571 79.3697 87.8872 79.1059C88.2179 79.1645 88.5486 79.1938 88.9395 79.1938C90.2324 79.1938 91.6456 78.6663 92.9084 77.4646L91.405 82.9454C90.7736 85.2902 91.7659 87.4005 94.3216 87.4005C96.0354 87.4005 98.4108 86.4919 100.305 84.6454C101.147 86.3453 102.831 87.4005 104.725 87.4005C106.288 87.4005 107.762 86.9022 109.085 85.9057C109.626 86.8143 110.618 87.4005 111.971 87.4005C114.226 87.4005 116.662 86.1109 118.977 83.3265C118.977 85.935 120.841 87.4005 122.976 87.4005C125.562 87.4005 127.245 86.5212 129.14 84.7919C130.012 86.4333 131.635 87.4298 133.499 87.4298C136.837 87.4298 139.874 85.173 141.347 80.3955C141.588 79.6042 141.708 78.7249 141.708 78.7249C143.963 78.3732 146.278 77.3473 146.609 75.1491C146.609 75.0612 146.609 75.0026 146.609 74.9147C148.623 74.9147 149.435 75.0026 149.555 76.1163C149.706 77.5525 147.331 79.9852 146.519 83.0041C145.887 85.3488 147.481 87.4591 150.037 87.4591C151.811 87.4591 153.675 86.6677 155.509 84.9678C155.389 86.6384 156.14 87.4591 157.163 87.4591C159.839 87.4591 162.515 85.1143 163.838 83.7661L162.124 90.0969C161.071 93.9072 158.876 95.8123 157.343 95.8123C156.441 95.8123 155.208 95.1382 156.802 92.5003C156.802 92.5003 156.501 91.9141 155.599 91.9141C154.697 91.9141 153.554 92.471 153.164 93.9072C152.562 96.0761 154.036 97.5415 156.832 97.5415C160.079 97.5415 163.928 95.1382 165.311 90.0969L170.061 72.8923C170.061 72.9509 169.791 72.5992 169.039 72.5992ZM55.4143 78.8128C54.362 83.854 51.8664 85.7005 50.363 85.7005C48.8596 85.7005 48.1079 83.9127 48.7393 80.9817C49.7917 75.9405 52.2873 74.094 53.7907 74.094C55.294 74.094 56.0157 75.9112 55.4143 78.8128ZM84.6399 78.8128C83.5875 83.854 81.0919 85.7005 79.5885 85.7005C78.0852 85.7005 77.3335 83.9127 77.9649 80.9817C79.0173 75.9405 81.5129 74.094 83.0162 74.094C84.5196 74.094 85.2713 75.9112 84.6399 78.8128ZM109.866 78.8128C108.814 83.854 106.319 85.7005 104.815 85.7005C103.312 85.7005 102.56 83.9127 103.191 80.9817C104.244 75.9405 106.739 74.094 108.243 74.094C109.746 74.094 110.498 75.9112 109.866 78.8128ZM138.581 78.9887C137.529 84.0299 135.033 85.8764 133.53 85.8764C132.026 85.8764 131.274 84.0885 131.906 81.1576C132.958 76.1163 135.454 74.2698 136.957 74.2698C138.461 74.2698 139.212 76.0577 138.581 78.9887Z" fill="#CDCDCD"/>
<path d="M81.2124 23.5057C80.4306 22.2747 78.8371 22.1281 77.6043 23.2419C76.3715 24.3557 76.1009 26.2315 76.8827 27.4918C77.6644 28.6935 79.2881 28.8107 80.4908 27.7262C81.6634 26.6418 81.9941 24.7367 81.2124 23.5057Z" fill="#CDCDCD"/>
<path d="M76.1909 43.6412L81.5429 42.5568L81.6331 28.6055L76.221 31.5657L76.1909 43.6412Z" fill="#CDCDCD"/>
<path d="M87.8873 19.6955L82.2647 27.2866L82.2046 29.1624L83.8583 28.7521L83.708 36.6656C83.6779 39.45 85.4819 40.5345 86.5944 40.8862C88.9397 41.6189 91.3752 40.2414 92.2171 38.3656C92.7883 37.1053 92.8184 35.6398 92.7282 34.8778C92.2171 35.2881 90.6235 37.1346 89.6012 36.226C89.2404 35.9036 89.2103 35.2295 89.2103 33.8226L89.3306 27.4039L92.7583 26.5539L92.8184 22.7437L89.4208 23.5936L89.541 19.3145L87.8873 19.6955Z" fill="#CDCDCD"/>
<path d="M65.1863 30.2468L65.3066 19.2557C63.9836 19.285 59.9245 20.0178 58.361 21.2195L58.0303 51.5254C60.4958 52.8444 62.9012 53.6064 64.9157 54.134L65.2164 42.4102L75.1988 55.6581C78.2356 55.8046 81.6332 55.5701 83.7079 55.3943L69.8167 36.2845L84.67 5.89062C80.0396 7.26817 75.7701 9.11466 74.2667 9.81809L65.1863 30.2468Z" fill="#CDCDCD"/>
<path d="M127.125 11.049L121.503 18.6401L121.442 20.5159L123.096 20.1056L122.946 28.0192C122.916 30.8036 124.72 31.888 125.832 32.2397C128.177 32.9725 130.613 31.5949 131.455 29.7191C132.026 28.4295 132.026 26.9933 131.966 26.2313C131.455 26.6416 129.861 28.4588 128.839 27.5795C128.478 27.2864 128.448 26.583 128.478 25.1761L128.598 18.7574L132.026 17.9074L132.116 14.0972L128.719 14.9471L128.809 10.668L127.125 11.049Z" fill="#CDCDCD"/>
<path d="M138.761 15.885C137.438 11.4007 134.011 7.56113 128.899 4.83535C118.165 -0.9093 101.057 -1.46618 84.3091 3.36988C80.4905 4.48364 76.8523 5.80256 73.4547 7.29735C73.4848 7.91284 73.4547 8.52834 73.3946 9.17315C76.9726 7.53182 80.7912 6.12497 84.8803 4.92328C109.415 -2.16961 132.056 2.84231 136.115 16.6178C140.144 30.3053 123.758 46.5134 99.2225 53.577C74.6574 60.6699 52.1068 55.7166 48.0778 42.029C46.1535 35.493 48.7994 28.4001 54.7528 21.9814C53.7906 22.3624 52.9788 22.7434 52.2872 23.0951C51.6257 23.4469 51.0244 23.8572 50.4832 24.3261C49.7014 25.0003 49.07 25.733 48.4687 26.6123C44.9508 32.0345 43.6579 37.6326 45.1612 42.8204C46.4842 47.2754 49.8518 51.0564 54.9332 53.7821C60.7963 56.9182 68.5838 58.501 77.2131 58.501C84.3091 58.501 91.9763 57.4165 99.5833 55.2183C125.411 47.8909 142.971 30.188 138.761 15.885Z" fill="#CDCDCD"/>
<path d="M114.347 16.9406C112.182 17.6733 110.378 19.8422 109.566 21.1318L109.506 25.5576C110.738 24.268 113.384 21.4543 114.948 21.1025C115.88 20.8974 116.211 21.8646 115.73 22.7146C115.098 23.799 112.573 25.0593 111.189 26.261C109.806 27.4627 109.265 28.5471 108.934 29.8954C108.393 32.0936 109.656 34.79 111.25 35.2883C112.994 35.8452 115.158 35.5521 117.173 33.6177C119.278 34.878 121.412 34.0866 122.284 31.7126C122.645 30.7747 122.826 29.3385 122.826 28.6644C122.224 29.3971 120.931 29.6316 120.931 28.8109L121.022 20.8094C120.961 17.5561 117.443 15.9148 114.347 16.9406ZM115.79 30.4229C115.76 31.3022 114.858 31.5953 114.407 31.4781C113.986 31.3902 113.384 31.0091 113.565 29.954C113.745 28.9868 115.309 27.6092 115.94 27.1696L115.79 30.4229Z" fill="#CDCDCD"/>
<path d="M94.021 3.75142L93.4497 54.1344C96.8774 53.3723 99.0723 52.6982 100.636 52.2292L100.816 35.5815L110.137 48.6242C111.34 48.0966 114.978 46.3087 116.662 45.195L105.356 29.1627L116.451 3.63418C113.835 3.10661 110.859 2.81351 108.483 2.72559L100.816 22.4802L100.967 2.84282C99.4331 2.96006 95.5845 3.45832 94.021 3.75142Z" fill="#CDCDCD"/>
<path d="M135.213 3.45774C134.432 3.45774 133.8 2.84224 133.8 2.08019C133.8 1.28884 134.432 0.67334 135.244 0.67334C136.025 0.67334 136.657 1.28884 136.657 2.05088C136.627 2.81293 135.995 3.45774 135.213 3.45774V3.22326C135.875 3.22326 136.416 2.69569 136.416 2.02157C136.416 1.34746 135.875 0.849196 135.213 0.849196C134.552 0.849196 134.011 1.37677 134.011 2.05088C134.011 2.69569 134.552 3.22326 135.213 3.22326V3.45774Z" fill="#CDCDCD"/>
<path d="M134.913 2.84297H134.672V1.26025H135.304C135.665 1.26025 135.875 1.34818 135.875 1.67059C135.875 1.99299 135.665 2.08092 135.454 2.08092L135.875 2.81366H135.604L135.214 2.08092H134.943V1.84644H135.334C135.514 1.84644 135.665 1.81713 135.635 1.64128C135.635 1.46542 135.544 1.46542 135.334 1.46542H134.943L134.913 2.84297Z" fill="#CDCDCD"/>
<path d="M72.5529 6.62338C72.4627 5.33376 72.2222 3.95622 71.8313 2.52006C71.0495 3.42865 69.9671 3.13555 68.7344 2.81315C66.8401 2.31489 64.5249 1.67008 62.0594 5.06998L62.0293 5.09929L61.9992 5.06998C59.6841 3.19417 56.4368 2.19765 53.8209 2.63729C51.205 3.07694 48.529 4.57172 46.4243 7.12164C44.2294 9.75949 42.9666 13.1301 42.9966 16.53C42.9966 16.7644 42.9966 16.9989 43.0267 17.2334C43.2372 20.7212 44.8909 23.7694 47.5969 25.9383C48.529 24.5315 49.8821 22.9487 52.6783 21.5126C55.5347 20.0471 59.5337 18.9333 64.3144 18.0541C65.8178 17.7903 67.261 17.2041 68.4637 16.3834C69.7867 15.4748 70.809 14.3318 71.5306 12.9542C72.1921 11.6646 72.583 10.1698 72.6732 8.52849C72.6131 7.91299 72.583 7.26819 72.5529 6.62338ZM66.2087 6.94578C66.2087 6.82855 66.2989 6.71131 66.4192 6.65269C66.5394 6.62338 69.6664 5.83202 69.6664 5.83202C69.8168 5.80271 69.9371 5.91995 69.9371 6.09581V6.56476C69.9371 6.74062 69.8168 6.88716 69.6664 6.91647L66.4192 7.38542C66.329 7.41473 66.2388 7.32681 66.2388 7.20957L66.2087 6.94578ZM64.4948 7.03371C64.4948 6.82854 64.6452 6.62338 64.7955 6.59407L65.2465 6.53545C65.3969 6.50614 65.6073 6.65269 65.6073 6.88716L65.5472 12.8663C65.5472 13.0715 65.3668 13.2473 65.1864 13.3059L64.7354 13.3939C64.555 13.4232 64.4347 13.2766 64.4347 13.0715L64.4948 7.03371ZM61.7286 9.23192C61.7286 9.08537 61.8489 8.93882 61.9692 8.90952L62.2097 8.88021L62.2398 7.32681C62.2398 7.12164 62.3901 6.91647 62.5705 6.88716L63.0516 6.82854C63.232 6.79924 63.3823 6.94578 63.3823 7.18026L63.3523 8.70435L64.0739 8.58711C64.1942 8.5578 64.2844 8.67504 64.2844 8.82159V9.23192C64.2844 9.37847 64.1641 9.52501 64.0438 9.55432L63.3222 9.67156L63.2921 11.9577C63.2921 12.3973 63.5026 12.6611 63.8935 12.5732L63.9536 12.5439C64.0739 12.5146 64.1942 12.6318 64.1942 12.8077V13.2473C64.1942 13.4232 64.0739 13.5697 63.9536 13.599L63.5327 13.687C62.6908 13.8628 62.1796 13.218 62.2097 12.3387L62.2398 9.84742L61.9992 9.90604C61.879 9.93535 61.7587 9.81811 61.7587 9.67156L61.7286 9.23192ZM59.7442 11.137C59.8945 11.1663 60.4959 11.225 60.7665 11.2543C61.3979 11.3422 61.7888 11.7525 61.7888 12.4853C61.7587 13.7456 60.7063 14.3904 59.8945 14.5662C58.782 14.83 57.9401 14.2438 57.9702 13.4818V13.3939C57.9702 13.2473 58.0905 13.1301 58.1807 13.1008L58.5114 13.0128C58.6918 12.9835 59.0226 12.9542 59.0827 13.1301C59.1729 13.4232 59.5638 13.5697 59.9246 13.4818C60.3155 13.3939 60.6763 13.1887 60.6763 12.7784C60.6763 12.5146 60.4658 12.4853 60.1952 12.456C59.9547 12.4266 59.4736 12.368 59.203 12.3387C58.5716 12.2801 58.0604 11.8991 58.0604 11.137C58.0905 10.1112 58.8422 9.34916 59.9246 9.14399C60.977 8.96813 61.6685 9.4957 61.6685 10.2577C61.6685 10.4043 61.5783 10.5215 61.4881 10.5215L60.977 10.6095C60.8567 10.6388 60.7665 10.6095 60.7063 10.4922C60.6161 10.1991 60.3155 10.0819 59.9246 10.1698C59.5638 10.2284 59.2631 10.4336 59.2631 10.8146C59.2631 11.0491 59.5036 11.1077 59.7442 11.137ZM47.3263 9.70087C47.3263 9.40778 47.5368 9.14399 47.8074 9.11468L48.6192 8.96813C48.98 8.90952 49.2206 9.08537 49.3409 9.29054C49.4912 9.58363 51.5959 13.8042 51.5959 13.8042L51.626 9.11468C51.626 8.8509 51.8364 8.58711 52.077 8.5578L61.3378 7.20957C61.458 7.18026 61.5783 7.2975 61.5783 7.47335V7.91299C61.5783 8.08885 61.458 8.2354 61.3378 8.26471L52.9189 9.55432L52.8287 15.5335C52.8287 15.7972 52.6182 16.061 52.3777 16.1196L51.656 16.2955C51.3253 16.3834 51.1449 16.2369 50.9946 16.0024C50.9044 15.8852 48.6794 11.5474 48.6794 11.5474L48.6493 16.5007C48.6493 16.7938 48.4388 17.0575 48.1682 17.1162L47.6871 17.2627C47.4165 17.3213 47.2061 17.1455 47.2061 16.8524L47.3263 9.70087ZM55.5648 14.3025C55.9858 14.2145 56.2564 13.9507 56.4668 13.5404C56.527 13.4232 56.6172 13.3352 56.7374 13.3059L57.3989 13.1594C57.5493 13.1301 57.6094 13.2766 57.6094 13.4232C57.429 14.449 56.4969 15.299 55.5648 15.5335C54.1516 15.8852 53.3098 14.6835 53.3098 13.1008C53.3398 11.606 54.1817 10.0233 55.6249 9.73018C57.1584 9.43709 57.7898 10.7267 57.7597 12.1336C57.7597 12.4267 57.6395 12.6318 57.3689 12.6904L54.5125 13.3352C54.5726 13.9507 54.9635 14.449 55.5648 14.3025ZM47.2361 21.9229L47.2662 19.3144C57.8499 12.8077 64.3746 17.7903 69.7867 12.7197C66.5094 18.904 56.106 13.3939 47.2361 21.9229ZM69.6664 10.375L67.0205 10.8439C67.0506 11.4008 67.4114 11.8405 67.9827 11.7232C68.3735 11.6353 68.6441 11.3715 68.8246 11.0491C68.8847 10.9319 68.9749 10.8732 69.0952 10.8439L69.6965 10.7267C69.8469 10.6974 69.907 10.8439 69.8769 10.9612C69.6965 11.8698 68.8546 12.6318 67.9827 12.7784C66.6597 13.0421 65.8779 11.987 65.908 10.6095C65.9381 9.31985 66.7198 7.9423 68.1029 7.76645C69.5161 7.56128 70.1175 8.67504 70.0874 9.90604C70.0273 10.1698 69.907 10.3457 69.6664 10.375Z" fill="#CDCDCD"/>
<path d="M75.9203 2.81321C75.1385 2.81321 74.5071 2.19771 74.4771 1.43566C74.4771 0.644307 75.1085 0.0288086 75.9203 0.0288086C76.702 0.0288086 77.3335 0.644307 77.3335 1.40635C77.3635 2.1684 76.7321 2.7839 75.9203 2.81321V2.57873C76.5818 2.57873 77.123 2.05116 77.123 1.37704C77.123 0.702926 76.5818 0.204665 75.9203 0.204665C75.2588 0.204665 74.7176 0.732235 74.7176 1.40635C74.7176 2.05116 75.2588 2.57873 75.9203 2.57873V2.81321Z" fill="#CDCDCD"/>
<path d="M75.6194 2.19746H75.3789V0.614746H76.0103C76.3711 0.614746 76.5816 0.702674 76.5816 1.02508C76.5816 1.34748 76.3711 1.43541 76.1607 1.43541L76.5816 2.16815H76.311L75.8901 1.46472H75.6194V1.23024H76.0103C76.1907 1.23024 76.3411 1.20094 76.311 1.02508C76.311 0.849222 76.2208 0.849222 76.0103 0.849222H75.6194V2.19746Z" fill="#CDCDCD"/>
<path d="M55.6251 10.9025C55.0839 10.9904 54.6329 11.5766 54.5728 12.2214L56.6173 11.7818C56.5873 11.1663 56.1363 10.7853 55.6251 10.9025Z" fill="#CDCDCD"/>
<path d="M68.043 8.76319C67.5319 8.85112 67.1109 9.32007 67.0508 9.87695L68.9751 9.55455C68.945 9.02698 68.5241 8.70457 68.043 8.76319Z" fill="#CDCDCD"/>
</svg>
